<svg width="86" height="62" viewBox="0 0 86 62" fill="none" xmlns="http://www.w3.org/2000/svg">
<path d="M42.9366 60.7682C32.7154 60.7682 22.9587 58.9327 15.2278 55.5425C6.80917 51.8527 1.79147 46.7581 1.08528 41.1952C0.379085 35.6324 4.07731 30.2568 11.4924 26.08C18.9074 21.8844 29.1472 19.3933 40.3534 19.0374C51.541 18.7003 62.3384 20.5358 70.757 24.2257C79.1755 27.9155 84.1932 33.0101 84.8994 38.573C85.6056 44.1358 81.9074 49.5114 74.4924 53.6882C67.0773 57.865 56.8189 60.3749 45.6313 60.7308C44.7393 60.7495 43.8286 60.7682 42.9366 60.7682ZM43.0295 28.2339C42.5278 28.2339 42.026 28.2339 41.5242 28.2527C35.28 28.44 29.5747 29.8447 25.4304 32.1673C21.2862 34.5085 19.2419 37.4866 19.6322 40.5958C20.0224 43.705 22.8286 46.5333 27.5118 48.5936C37.1941 52.8454 52.0242 52.3771 60.5543 47.5635C64.6986 45.2222 66.7428 42.2441 66.3525 39.1349C65.9623 36.0257 63.1561 33.1974 58.4729 31.1371C54.1614 29.2641 48.7163 28.2339 43.0295 28.2339Z" fill="black" stroke="#8CC63F"/>
<path d="M14.706 48.0135C16.5086 47.3392 18.8502 47.4891 20.2626 48.4256C21.675 49.3621 21.3405 50.5234 19.5378 51.1977C17.7352 51.8719 15.3936 51.7221 13.9812 50.7856C12.5874 49.8491 12.9033 48.6878 14.706 48.0135ZM18.2555 50.3361C19.1847 49.9802 19.352 49.437 18.683 49.0062C18.014 48.5754 16.9175 48.5005 15.9883 48.8564C15.0591 49.2123 14.8918 49.7554 15.5609 50.1862C16.2299 50.617 17.3263 50.6919 18.2555 50.3361Z" fill="white"/>
<path d="M11.8434 43.2747C13.7947 42.9563 15.2814 43.3309 15.969 44.3611C16.6566 45.3912 15.9133 46.1217 13.962 46.4589L9.7062 47.1519L9.05576 46.1779L13.2558 45.4849C14.092 45.3538 14.3522 45.0354 14.1106 44.6608C13.869 44.2862 13.2743 44.1176 12.4566 44.2487L8.25664 44.9417L7.6062 43.9677L11.8434 43.2747Z" fill="white"/>
<path d="M8.61042 38.8354L8.68476 39.9031L14.3715 39.8094L14.4272 40.8396L8.74051 40.9332L8.81484 42.0008L6.91927 42.0383L6.71484 38.8729L8.61042 38.8354Z" fill="white"/>
<path d="M11.1558 34.1903C12.2894 34.3402 12.9398 34.771 12.8841 35.4078L16.0805 34.7522L15.4859 35.9322L12.4195 36.4754L12.3823 36.5316L14.9841 36.8687L14.4823 37.8614L7.1416 36.9249L7.97788 35.2954C8.46107 34.3589 9.66904 34.003 11.1558 34.1903ZM9.44603 36.157L10.7469 36.3256L11.0628 35.7075C11.1929 35.464 11.0814 35.258 10.6354 35.2018C10.1894 35.1456 9.89205 35.2954 9.76196 35.5389L9.44603 36.157Z" fill="white"/>
<path d="M17.7358 30.201C19.5012 30.7442 19.8729 31.5496 18.7207 32.4673C17.5871 33.3851 15.9703 33.5912 14.2048 33.048L10.3765 31.8867L11.4543 31.0064L15.2269 32.1677C15.9703 32.3924 16.6207 32.2988 17.0296 31.9616C17.4384 31.6245 17.3269 31.2873 16.5835 31.0626L12.811 29.9013L13.8889 29.021L17.7358 30.201Z" fill="white"/>
<path d="M27.399 27.8034L25.8565 28.4402L20.7273 27.8221L23.4591 29.4516L21.8795 30.1072L17.0291 27.2228L18.5715 26.5859L23.7007 27.204L20.9689 25.5745L22.5485 24.9189L27.399 27.8034Z" fill="white"/>
<path d="M43.9762 23.6455C44.1806 24.7693 42.6753 25.6683 40.3523 25.7807C38.0107 25.8931 36.2081 25.1439 36.0036 24.0201C35.7992 22.8963 37.3045 21.9972 39.6275 21.8848C41.9691 21.7912 43.7718 22.5404 43.9762 23.6455ZM38.1408 23.9264C38.2523 24.5071 39.0886 24.8629 40.1851 24.8067C41.2815 24.7506 41.9691 24.3198 41.8576 23.7579C41.7461 23.1772 40.9098 22.8214 39.8134 22.8775C38.7169 22.915 38.0293 23.3458 38.1408 23.9264Z" fill="#8CC63F"/>
<path d="M53.5845 24.9191C53.1013 25.9118 51.6889 26.3426 49.5703 26.0991C47.4517 25.8557 46.5783 25.1439 47.0429 24.1512L48.0836 21.9785L50.0907 22.222L49.0685 24.3572C48.8641 24.788 49.2544 25.0503 50.0163 25.1439C50.7969 25.2376 51.373 25.069 51.5774 24.6569L52.5995 22.5217L54.6066 22.7652L53.5845 24.9191Z" fill="#8CC63F"/>
<path d="M62.8752 25.8932L61.0168 25.3501L58.1735 27.8037L56.3894 27.298L59.2328 24.8444L57.3744 24.3012L58.3221 23.4771L63.8416 25.0504L62.8752 25.8932Z" fill="#8CC63F"/>
<path d="M69.4736 29.4142C68.6373 29.8263 67.5595 29.8637 66.4816 29.5079L65.9241 31.2123L64.2329 30.3507L64.9019 28.7774L64.8276 28.7399L62.8948 29.6764L61.4639 28.946L66.909 26.3237L69.2506 27.5225C70.5887 28.178 70.5887 28.8898 69.4736 29.4142ZM67.0019 27.6536L66.0356 28.1218L66.9462 28.5901C67.2993 28.7774 67.7081 28.8336 68.0426 28.665C68.3772 28.5152 68.2657 28.2904 67.9126 28.1218L67.0019 27.6536Z" fill="#8CC63F"/>
<path d="M72.8373 34.284C70.9975 34.7522 69.4179 34.49 68.4515 33.516C67.4665 32.5421 67.9869 31.7554 69.8267 31.3059L73.8409 30.2944L74.7701 31.2122L70.8117 32.2049C70.0311 32.3922 69.8639 32.7294 70.217 33.0665C70.5701 33.4224 71.2019 33.5348 71.9825 33.3475L75.9409 32.3548L76.8701 33.2725L72.8373 34.284Z" fill="#8CC63F"/>
<path d="M71.8332 39.6411L71.5544 38.6484L75.327 36.8129L71.1084 37.1125L70.811 36.1011L78.319 35.5767L78.5978 36.5694L74.8252 38.4049L79.0438 38.1052L79.3411 39.1167L71.8332 39.6411Z" fill="#8CC63F"/>
<path d="M70.2357 48.8376C68.21 48.3319 67.448 47.2268 68.5073 46.1779C69.548 45.129 71.7781 44.7544 73.8038 45.2601C75.8295 45.7659 76.5914 46.8709 75.5321 47.9198C74.51 48.9687 72.2613 49.3433 70.2357 48.8376ZM72.856 46.2154C71.8153 45.9532 70.756 46.1217 70.2728 46.6087C69.7896 47.0957 70.1613 47.6201 71.202 47.8824C72.2427 48.1446 73.302 47.976 73.7852 47.489C74.2684 47.002 73.8967 46.4776 72.856 46.2154Z" fill="white"/>
<path d="M63.0246 52.2275C61.575 51.497 61.575 50.6729 63.1175 49.9049C64.6599 49.137 66.3139 49.137 67.7821 49.8675L70.9599 51.4408L69.4918 52.1713L66.3697 50.6167C65.7564 50.317 65.0874 50.3357 64.5113 50.598C63.9538 50.8789 63.9166 51.2161 64.5299 51.5157L67.652 53.0703L66.1838 53.8008L63.0246 52.2275Z" fill="white"/>
<path d="M56.483 55.6552L58.3785 55.1495L55.6838 52.6584L57.4865 52.1714L60.1812 54.6625L62.0768 54.1568L62.9688 54.9809L57.3564 56.4793L56.483 55.6552Z" fill="white"/>
<path d="M46.9674 56.592C46.7258 56.0301 47.209 55.5431 48.3984 55.2809L45.7966 54.1383L48.1754 53.8761L50.5356 54.9999L50.6471 54.9812L50.071 53.6701L52.078 53.4453L53.6763 57.1352L50.3683 57.491C48.4913 57.7158 47.2834 57.3412 46.9674 56.592ZM51.2789 56.4796L51.0002 55.824L49.7365 55.9552C49.2347 56.0113 48.9188 56.1425 49.0117 56.3672C49.1046 56.592 49.5134 56.6482 50.0152 56.6107L51.2789 56.4796Z" fill="white"/>
<path d="M36.8771 55.4492C37.063 54.419 38.3267 53.8946 40.501 53.9882C42.6753 54.0819 43.7532 54.7187 43.5674 55.7301L43.1771 57.959L41.1143 57.8654L41.5045 55.6739C41.5789 55.2431 41.1143 54.9997 40.3337 54.9622C39.5346 54.9247 39.0143 55.1308 38.9214 55.5616L38.5311 57.753L36.4683 57.6593L36.8771 55.4492Z" fill="white"/>
<path d="M28.2353 52.209L30.0751 52.6023L31.2273 55.1683L32.937 53.2204L34.814 53.6325L31.7848 57.0788L29.945 56.6855L28.7928 54.1194L27.083 56.0674L25.2061 55.6553L28.2353 52.209Z" fill="white"/>
<path d="M42.9366 51.7682C32.7154 51.7682 22.9587 49.9327 15.2278 46.5425C6.80917 42.8527 1.79147 37.7581 1.08528 32.1952C0.379085 26.6324 4.07731 21.2568 11.4924 17.08C18.9074 12.8844 29.1472 10.3933 40.3534 10.0374C51.541 9.70029 62.3384 11.5358 70.757 15.2257C79.1755 18.9155 84.1932 24.0101 84.8994 29.573C85.6056 35.1358 81.9074 40.5114 74.4924 44.6882C67.0773 48.865 56.8189 51.3749 45.6313 51.7308C44.7393 51.7495 43.8286 51.7682 42.9366 51.7682ZM43.0295 19.2339C42.5278 19.2339 42.026 19.2339 41.5242 19.2527C35.28 19.44 29.5747 20.8447 25.4304 23.1673C21.2862 25.5085 19.2419 28.4866 19.6322 31.5958C20.0224 34.705 22.8286 37.5333 27.5118 39.5936C37.1941 43.8454 52.0242 43.3771 60.5543 38.5635C64.6986 36.2222 66.7428 33.2441 66.3525 30.1349C65.9623 27.0257 63.1561 24.1974 58.4729 22.1371C54.1614 20.2641 48.7163 19.2339 43.0295 19.2339Z" fill="black" stroke="#8CC63F"/>
<path d="M14.706 39.0135C16.5086 38.3392 18.8502 38.4891 20.2626 39.4256C21.675 40.3621 21.3405 41.5234 19.5378 42.1977C17.7352 42.8719 15.3936 42.7221 13.9812 41.7856C12.5874 40.8491 12.9033 39.6878 14.706 39.0135ZM18.2555 41.3361C19.1847 40.9802 19.352 40.437 18.683 40.0062C18.014 39.5754 16.9175 39.5005 15.9883 39.8564C15.0591 40.2123 14.8918 40.7554 15.5609 41.1862C16.2299 41.617 17.3263 41.6919 18.2555 41.3361Z" fill="white"/>
<path d="M11.8434 34.2747C13.7947 33.9563 15.2814 34.3309 15.969 35.3611C16.6566 36.3912 15.9133 37.1217 13.962 37.4589L9.7062 38.1519L9.05576 37.1779L13.2558 36.4849C14.092 36.3538 14.3522 36.0354 14.1106 35.6608C13.869 35.2862 13.2743 35.1176 12.4566 35.2487L8.25664 35.9417L7.6062 34.9677L11.8434 34.2747Z" fill="white"/>
<path d="M8.61042 29.8354L8.68476 30.9031L14.3715 30.8094L14.4272 31.8396L8.74051 31.9332L8.81484 33.0008L6.91927 33.0383L6.71484 29.8729L8.61042 29.8354Z" fill="white"/>
<path d="M11.1558 25.1903C12.2894 25.3402 12.9398 25.771 12.8841 26.4078L16.0805 25.7522L15.4859 26.9322L12.4195 27.4754L12.3823 27.5316L14.9841 27.8687L14.4823 28.8614L7.1416 27.9249L7.97788 26.2954C8.46107 25.3589 9.66904 25.003 11.1558 25.1903ZM9.44603 27.157L10.7469 27.3256L11.0628 26.7075C11.1929 26.464 11.0814 26.258 10.6354 26.2018C10.1894 26.1456 9.89205 26.2954 9.76196 26.5389L9.44603 27.157Z" fill="white"/>
<path d="M17.7358 21.201C19.5012 21.7442 19.8729 22.5496 18.7207 23.4673C17.5871 24.3851 15.9703 24.5912 14.2048 24.048L10.3765 22.8867L11.4543 22.0064L15.2269 23.1677C15.9703 23.3924 16.6207 23.2988 17.0296 22.9616C17.4384 22.6245 17.3269 22.2873 16.5835 22.0626L12.811 20.9013L13.8889 20.021L17.7358 21.201Z" fill="white"/>
<path d="M27.399 18.8034L25.8565 19.4402L20.7273 18.8221L23.4591 20.4516L21.8795 21.1072L17.0291 18.2228L18.5715 17.5859L23.7007 18.204L20.9689 16.5745L22.5485 15.9189L27.399 18.8034Z" fill="white"/>
<path d="M43.9762 14.6455C44.1806 15.7693 42.6753 16.6683 40.3523 16.7807C38.0107 16.8931 36.2081 16.1439 36.0036 15.0201C35.7992 13.8963 37.3045 12.9972 39.6275 12.8848C41.9691 12.7912 43.7718 13.5404 43.9762 14.6455ZM38.1408 14.9264C38.2523 15.5071 39.0886 15.8629 40.1851 15.8067C41.2815 15.7506 41.9691 15.3198 41.8576 14.7579C41.7461 14.1772 40.9098 13.8214 39.8134 13.8775C38.7169 13.915 38.0293 14.3458 38.1408 14.9264Z" fill="#8CC63F"/>
<path d="M53.5845 15.9191C53.1013 16.9118 51.6889 17.3426 49.5703 17.0991C47.4517 16.8557 46.5783 16.1439 47.0429 15.1512L48.0836 12.9785L50.0907 13.222L49.0685 15.3572C48.8641 15.788 49.2544 16.0503 50.0163 16.1439C50.7969 16.2376 51.373 16.069 51.5774 15.6569L52.5995 13.5217L54.6066 13.7652L53.5845 15.9191Z" fill="#8CC63F"/>
<path d="M62.8752 16.8932L61.0168 16.3501L58.1735 18.8037L56.3894 18.298L59.2328 15.8444L57.3744 15.3012L58.3221 14.4771L63.8416 16.0504L62.8752 16.8932Z" fill="#8CC63F"/>
<path d="M69.4736 20.4142C68.6373 20.8263 67.5595 20.8637 66.4816 20.5079L65.9241 22.2123L64.2329 21.3507L64.9019 19.7774L64.8276 19.7399L62.8948 20.6764L61.4639 19.946L66.909 17.3237L69.2506 18.5225C70.5887 19.178 70.5887 19.8898 69.4736 20.4142ZM67.0019 18.6536L66.0356 19.1218L66.9462 19.5901C67.2993 19.7774 67.7081 19.8336 68.0426 19.665C68.3772 19.5152 68.2657 19.2904 67.9126 19.1218L67.0019 18.6536Z" fill="#8CC63F"/>
<path d="M72.8373 25.284C70.9975 25.7522 69.4179 25.49 68.4515 24.516C67.4665 23.5421 67.9869 22.7554 69.8267 22.3059L73.8409 21.2944L74.7701 22.2122L70.8117 23.2049C70.0311 23.3922 69.8639 23.7294 70.217 24.0665C70.5701 24.4224 71.2019 24.5348 71.9825 24.3475L75.9409 23.3548L76.8701 24.2725L72.8373 25.284Z" fill="#8CC63F"/>
<path d="M71.8332 30.6411L71.5544 29.6484L75.327 27.8129L71.1084 28.1125L70.811 27.1011L78.319 26.5767L78.5978 27.5694L74.8252 29.4049L79.0438 29.1052L79.3411 30.1167L71.8332 30.6411Z" fill="#8CC63F"/>
<path d="M70.2357 39.8376C68.21 39.3319 67.448 38.2268 68.5073 37.1779C69.548 36.129 71.7781 35.7544 73.8038 36.2601C75.8295 36.7659 76.5914 37.8709 75.5321 38.9198C74.51 39.9687 72.2613 40.3433 70.2357 39.8376ZM72.856 37.2154C71.8153 36.9532 70.756 37.1217 70.2728 37.6087C69.7896 38.0957 70.1613 38.6201 71.202 38.8824C72.2427 39.1446 73.302 38.976 73.7852 38.489C74.2684 38.002 73.8967 37.4776 72.856 37.2154Z" fill="white"/>
<path d="M63.0246 43.2275C61.575 42.497 61.575 41.6729 63.1175 40.9049C64.6599 40.137 66.3139 40.137 67.7821 40.8675L70.9599 42.4408L69.4918 43.1713L66.3697 41.6167C65.7564 41.317 65.0874 41.3357 64.5113 41.598C63.9538 41.8789 63.9166 42.2161 64.5299 42.5157L67.652 44.0703L66.1838 44.8008L63.0246 43.2275Z" fill="white"/>
<path d="M56.483 46.6552L58.3785 46.1495L55.6838 43.6584L57.4865 43.1714L60.1812 45.6625L62.0768 45.1568L62.9688 45.9809L57.3564 47.4793L56.483 46.6552Z" fill="white"/>
<path d="M46.9674 47.592C46.7258 47.0301 47.209 46.5431 48.3984 46.2809L45.7966 45.1383L48.1754 44.8761L50.5356 45.9999L50.6471 45.9812L50.071 44.6701L52.078 44.4453L53.6763 48.1352L50.3683 48.491C48.4913 48.7158 47.2834 48.3412 46.9674 47.592ZM51.2789 47.4796L51.0002 46.824L49.7365 46.9552C49.2347 47.0113 48.9188 47.1425 49.0117 47.3672C49.1046 47.592 49.5134 47.6482 50.0152 47.6107L51.2789 47.4796Z" fill="white"/>
<path d="M36.8771 46.4492C37.063 45.419 38.3267 44.8946 40.501 44.9882C42.6753 45.0819 43.7532 45.7187 43.5674 46.7301L43.1771 48.959L41.1143 48.8654L41.5045 46.6739C41.5789 46.2431 41.1143 45.9997 40.3337 45.9622C39.5346 45.9247 39.0143 46.1308 38.9214 46.5616L38.5311 48.753L36.4683 48.6593L36.8771 46.4492Z" fill="white"/>
<path d="M28.2353 43.209L30.0751 43.6023L31.2273 46.1683L32.937 44.2204L34.814 44.6325L31.7848 48.0788L29.945 47.6855L28.7928 45.1194L27.083 47.0674L25.2061 46.6553L28.2353 43.209Z" fill="white"/>
<path d="M42.9366 42.7682C32.7154 42.7682 22.9587 40.9327 15.2278 37.5425C6.80917 33.8527 1.79147 28.7581 1.08528 23.1952C0.379085 17.6324 4.07731 12.2568 11.4924 8.07997C18.9074 3.88442 29.1472 1.39331 40.3534 1.03743C51.541 0.700291 62.3384 2.53585 70.757 6.22569C79.1755 9.91553 84.1932 15.0101 84.8994 20.573C85.6056 26.1358 81.9074 31.5114 74.4924 35.6882C67.0773 39.865 56.8189 42.3749 45.6313 42.7308C44.7393 42.7495 43.8286 42.7682 42.9366 42.7682ZM43.0295 10.2339C42.5278 10.2339 42.026 10.2339 41.5242 10.2527C35.28 10.44 29.5747 11.8447 25.4304 14.1673C21.2862 16.5085 19.2419 19.4866 19.6322 22.5958C20.0224 25.705 22.8286 28.5333 27.5118 30.5936C37.1941 34.8454 52.0242 34.3771 60.5543 29.5635C64.6986 27.2222 66.7428 24.2441 66.3525 21.1349C65.9623 18.0257 63.1561 15.1974 58.4729 13.1371C54.1614 11.2641 48.7163 10.2339 43.0295 10.2339Z" fill="black" stroke="#8CC63F"/>
<path d="M14.706 30.0135C16.5086 29.3392 18.8502 29.4891 20.2626 30.4256C21.675 31.3621 21.3405 32.5234 19.5378 33.1977C17.7352 33.8719 15.3936 33.7221 13.9812 32.7856C12.5874 31.8491 12.9033 30.6878 14.706 30.0135ZM18.2555 32.3361C19.1847 31.9802 19.352 31.437 18.683 31.0062C18.014 30.5754 16.9175 30.5005 15.9883 30.8564C15.0591 31.2123 14.8918 31.7554 15.5609 32.1862C16.2299 32.617 17.3263 32.6919 18.2555 32.3361Z" fill="white"/>
<path d="M11.8434 25.2747C13.7947 24.9563 15.2814 25.3309 15.969 26.3611C16.6566 27.3912 15.9133 28.1217 13.962 28.4589L9.7062 29.1519L9.05576 28.1779L13.2558 27.4849C14.092 27.3538 14.3522 27.0354 14.1106 26.6608C13.869 26.2862 13.2743 26.1176 12.4566 26.2487L8.25664 26.9417L7.6062 25.9677L11.8434 25.2747Z" fill="white"/>
<path d="M8.61042 20.8354L8.68476 21.9031L14.3715 21.8094L14.4272 22.8396L8.74051 22.9332L8.81484 24.0008L6.91927 24.0383L6.71484 20.8729L8.61042 20.8354Z" fill="white"/>
<path d="M11.1558 16.1903C12.2894 16.3402 12.9398 16.771 12.8841 17.4078L16.0805 16.7522L15.4859 17.9322L12.4195 18.4754L12.3823 18.5316L14.9841 18.8687L14.4823 19.8614L7.1416 18.9249L7.97788 17.2954C8.46107 16.3589 9.66904 16.003 11.1558 16.1903ZM9.44603 18.157L10.7469 18.3256L11.0628 17.7075C11.1929 17.464 11.0814 17.258 10.6354 17.2018C10.1894 17.1456 9.89205 17.2954 9.76196 17.5389L9.44603 18.157Z" fill="white"/>
<path d="M17.7358 12.201C19.5012 12.7442 19.8729 13.5496 18.7207 14.4673C17.5871 15.3851 15.9703 15.5912 14.2048 15.048L10.3765 13.8867L11.4543 13.0064L15.2269 14.1677C15.9703 14.3924 16.6207 14.2988 17.0296 13.9616C17.4384 13.6245 17.3269 13.2873 16.5835 13.0626L12.811 11.9013L13.8889 11.021L17.7358 12.201Z" fill="white"/>
<path d="M27.399 9.80339L25.8565 10.4402L20.7273 9.82212L23.4591 11.4516L21.8795 12.1072L17.0291 9.22275L18.5715 8.58593L23.7007 9.20402L20.9689 7.5745L22.5485 6.91895L27.399 9.80339Z" fill="white"/>
<path d="M43.9762 5.64548C44.1806 6.76929 42.6753 7.66834 40.3523 7.78072C38.0107 7.8931 36.2081 7.14389 36.0036 6.02008C35.7992 4.89627 37.3045 3.99722 39.6275 3.88484C41.9691 3.79119 43.7718 4.5404 43.9762 5.64548ZM38.1408 5.92643C38.2523 6.50707 39.0886 6.86294 40.1851 6.80675C41.2815 6.75056 41.9691 6.31976 41.8576 5.75786C41.7461 5.17722 40.9098 4.82135 39.8134 4.87754C38.7169 4.915 38.0293 5.3458 38.1408 5.92643Z" fill="#8CC63F"/>
<path d="M53.5845 6.91915C53.1013 7.91185 51.6889 8.34264 49.5703 8.09915C47.4517 7.85566 46.5783 7.14391 47.0429 6.15121L48.0836 3.97852L50.0907 4.22201L49.0685 6.35724C48.8641 6.78804 49.2544 7.05026 50.0163 7.14391C50.7969 7.23756 51.373 7.06899 51.5774 6.65693L52.5995 4.52169L54.6066 4.76518L53.5845 6.91915Z" fill="#8CC63F"/>
<path d="M62.8752 7.89324L61.0168 7.35007L58.1735 9.80372L56.3894 9.298L59.2328 6.84435L57.3744 6.30118L58.3221 5.47705L63.8416 7.05038L62.8752 7.89324Z" fill="#8CC63F"/>
<path d="M69.4736 11.4142C68.6373 11.8263 67.5595 11.8637 66.4816 11.5079L65.9241 13.2123L64.2329 12.3507L64.9019 10.7774L64.8276 10.7399L62.8948 11.6764L61.4639 10.946L66.909 8.32373L69.2506 9.52246C70.5887 10.178 70.5887 10.8898 69.4736 11.4142ZM67.0019 9.65357L66.0356 10.1218L66.9462 10.5901C67.2993 10.7774 67.7081 10.8336 68.0426 10.665C68.3772 10.5152 68.2657 10.2904 67.9126 10.1218L67.0019 9.65357Z" fill="#8CC63F"/>
<path d="M72.8373 16.284C70.9975 16.7522 69.4179 16.49 68.4515 15.516C67.4665 14.5421 67.9869 13.7554 69.8267 13.3059L73.8409 12.2944L74.7701 13.2122L70.8117 14.2049C70.0311 14.3922 69.8639 14.7294 70.217 15.0665C70.5701 15.4224 71.2019 15.5348 71.9825 15.3475L75.9409 14.3548L76.8701 15.2725L72.8373 16.284Z" fill="#8CC63F"/>
<path d="M71.8332 21.6411L71.5544 20.6484L75.327 18.8129L71.1084 19.1125L70.811 18.1011L78.319 17.5767L78.5978 18.5694L74.8252 20.4049L79.0438 20.1052L79.3411 21.1167L71.8332 21.6411Z" fill="#8CC63F"/>
<path d="M70.2357 30.8376C68.21 30.3319 67.448 29.2268 68.5073 28.1779C69.548 27.129 71.7781 26.7544 73.8038 27.2601C75.8295 27.7659 76.5914 28.8709 75.5321 29.9198C74.51 30.9687 72.2613 31.3433 70.2357 30.8376ZM72.856 28.2154C71.8153 27.9532 70.756 28.1217 70.2728 28.6087C69.7896 29.0957 70.1613 29.6201 71.202 29.8824C72.2427 30.1446 73.302 29.976 73.7852 29.489C74.2684 29.002 73.8967 28.4776 72.856 28.2154Z" fill="white"/>
<path d="M63.0246 34.2275C61.575 33.497 61.575 32.6729 63.1175 31.9049C64.6599 31.137 66.3139 31.137 67.7821 31.8675L70.9599 33.4408L69.4918 34.1713L66.3697 32.6167C65.7564 32.317 65.0874 32.3357 64.5113 32.598C63.9538 32.8789 63.9166 33.2161 64.5299 33.5157L67.652 35.0703L66.1838 35.8008L63.0246 34.2275Z" fill="white"/>
<path d="M56.483 37.6552L58.3785 37.1495L55.6838 34.6584L57.4865 34.1714L60.1812 36.6625L62.0768 36.1568L62.9688 36.9809L57.3564 38.4793L56.483 37.6552Z" fill="white"/>
<path d="M46.9674 38.592C46.7258 38.0301 47.209 37.5431 48.3984 37.2809L45.7966 36.1383L48.1754 35.8761L50.5356 36.9999L50.6471 36.9812L50.071 35.6701L52.078 35.4453L53.6763 39.1352L50.3683 39.491C48.4913 39.7158 47.2834 39.3412 46.9674 38.592ZM51.2789 38.4796L51.0002 37.824L49.7365 37.9552C49.2347 38.0113 48.9188 38.1425 49.0117 38.3672C49.1046 38.592 49.5134 38.6482 50.0152 38.6107L51.2789 38.4796Z" fill="white"/>
<path d="M36.8771 37.4492C37.063 36.419 38.3267 35.8946 40.501 35.9882C42.6753 36.0819 43.7532 36.7187 43.5674 37.7301L43.1771 39.959L41.1143 39.8654L41.5045 37.6739C41.5789 37.2431 41.1143 36.9997 40.3337 36.9622C39.5346 36.9247 39.0143 37.1308 38.9214 37.5616L38.5311 39.753L36.4683 39.6593L36.8771 37.4492Z" fill="white"/>
<path d="M28.2353 34.209L30.0751 34.6023L31.2273 37.1683L32.937 35.2204L34.814 35.6325L31.7848 39.0788L29.945 38.6855L28.7928 36.1194L27.083 38.0674L25.2061 37.6553L28.2353 34.209Z" fill="white"/>
</svg>
